<svg width="10" height="9" viewBox="0 0 10 9" fill="none" xmlns="http://www.w3.org/2000/svg">
<path fill-rule="evenodd" clip-rule="evenodd" d="M0.536499 4.5288C0.536499 4.38347 0.597123 4.24409 0.705035 4.14132C0.812946 4.03855 0.959306 3.98082 1.11192 3.98082H7.77869L5.30785 1.6289C5.1998 1.526 5.1391 1.38645 5.1391 1.24093C5.1391 1.09541 5.1998 0.955858 5.30785 0.852963C5.4159 0.750067 5.56244 0.692261 5.71525 0.692261C5.86805 0.692261 6.01459 0.750067 6.12264 0.852963L9.57514 4.14083C9.62873 4.19173 9.67124 4.2522 9.70025 4.31878C9.72926 4.38535 9.74419 4.45672 9.74419 4.5288C9.74419 4.60088 9.72926 4.67225 9.70025 4.73882C9.67124 4.8054 9.62873 4.86587 9.57514 4.91677L6.12264 8.20464C6.01459 8.30753 5.86805 8.36534 5.71525 8.36534C5.56244 8.36534 5.4159 8.30753 5.30785 8.20464C5.1998 8.10174 5.1391 7.96218 5.1391 7.81667C5.1391 7.67115 5.1998 7.53159 5.30785 7.4287L7.77869 5.07678H1.11192C0.959306 5.07678 0.812946 5.01904 0.705035 4.91628C0.597123 4.81351 0.536499 4.67413 0.536499 4.5288Z" fill="white"/>
</svg>
