<svg width="37" height="32" viewBox="0 0 37 32" fill="none" xmlns="http://www.w3.org/2000/svg">
<g clip-path="url(#clip0_1579_2329)">
<path fill-rule="evenodd" clip-rule="evenodd" d="M35.2437 30.5711C35.2437 30.5711 37.6096 30.5711 37.6096 28.184C37.6096 25.7968 35.2437 18.6352 25.7803 18.6352C16.3168 18.6352 13.951 25.7968 13.951 28.184C13.951 30.5711 16.3168 30.5711 16.3168 30.5711H35.2437ZM16.3689 28.184H35.1917C35.2028 28.1827 35.2138 28.1811 35.2248 28.1792L35.2437 28.1744C35.239 27.5442 34.8486 25.7156 33.4457 24.0685C32.1397 22.524 29.8448 21.0224 25.7803 21.0224C21.7181 21.0224 19.4232 22.5263 18.1149 24.0685C16.7119 25.7156 16.3192 27.5466 16.3168 28.1744C16.3341 28.1778 16.3515 28.181 16.3689 28.184ZM25.7803 13.8609C27.0352 13.8609 28.2388 13.3579 29.1261 12.4625C30.0135 11.5671 30.512 10.3528 30.512 9.08653C30.512 7.82029 30.0135 6.60591 29.1261 5.71054C28.2388 4.81518 27.0352 4.31217 25.7803 4.31217C24.5254 4.31217 23.3218 4.81518 22.4344 5.71054C21.5471 6.60591 21.0486 7.82029 21.0486 9.08653C21.0486 10.3528 21.5471 11.5671 22.4344 12.4625C23.3218 13.3579 24.5254 13.8609 25.7803 13.8609ZM32.8779 9.08653C32.8779 10.027 32.6943 10.9583 32.3376 11.8271C31.9809 12.696 31.4581 13.4855 30.799 14.1505C30.14 14.8155 29.3575 15.343 28.4964 15.7029C27.6353 16.0628 26.7124 16.2481 25.7803 16.2481C24.8482 16.2481 23.9253 16.0628 23.0642 15.7029C22.203 15.343 21.4206 14.8155 20.7615 14.1505C20.1025 13.4855 19.5796 12.696 19.223 11.8271C18.8663 10.9583 18.6827 10.027 18.6827 9.08653C18.6827 7.18717 19.4305 5.3656 20.7615 4.02255C22.0926 2.67951 23.8979 1.92499 25.7803 1.92499C27.6627 1.92499 29.468 2.67951 30.799 4.02255C32.1301 5.3656 32.8779 7.18717 32.8779 9.08653ZM16.1654 19.3037C15.219 19.003 14.2435 18.8053 13.2554 18.714C12.7002 18.6608 12.1428 18.6345 11.5851 18.6352C2.12163 18.6352 -0.244232 25.7968 -0.244232 28.184C-0.244232 29.7762 0.543601 30.5711 2.12163 30.5711H12.0961C11.7454 29.8259 11.5705 29.0088 11.5851 28.184C11.5851 25.7729 12.477 23.3093 14.1639 21.2516C14.7388 20.5498 15.4083 19.8933 16.1654 19.3037ZM11.3958 21.0224C7.44956 21.0702 5.20909 22.5502 3.91969 24.0685C2.50727 25.7252 2.12163 27.5609 2.12163 28.184H9.21923C9.21923 25.6894 9.9834 23.2043 11.3958 21.0224ZM3.30457 10.2801C3.30457 8.38076 4.05235 6.55919 5.3834 5.21614C6.71446 3.87309 8.51976 3.11858 10.4022 3.11858C12.2846 3.11858 14.0899 3.87309 15.4209 5.21614C16.752 6.55919 17.4998 8.38076 17.4998 10.2801C17.4998 12.1795 16.752 14.001 15.4209 15.3441C14.0899 16.6871 12.2846 17.4417 10.4022 17.4417C8.51976 17.4417 6.71446 16.6871 5.3834 15.3441C4.05235 14.001 3.30457 12.1795 3.30457 10.2801ZM10.4022 5.50576C9.14723 5.50576 7.94369 6.00877 7.05632 6.90413C6.16895 7.7995 5.67043 9.01388 5.67043 10.2801C5.67043 11.5464 6.16895 12.7607 7.05632 13.6561C7.94369 14.5515 9.14723 15.0545 10.4022 15.0545C11.6571 15.0545 12.8606 14.5515 13.748 13.6561C14.6354 12.7607 15.1339 11.5464 15.1339 10.2801C15.1339 9.01388 14.6354 7.7995 13.748 6.90413C12.8606 6.00877 11.6571 5.50576 10.4022 5.50576Z" fill="white"/>
</g>
<defs>
<clipPath id="clip0_1579_2329">
<rect width="36.8308" height="30.3313" fill="white" transform="translate(0.0115356 0.901917)"/>
</clipPath>
</defs>
</svg>
