<svg width="38" height="31" viewBox="0 0 38 31" fill="none" xmlns="http://www.w3.org/2000/svg">
<g clip-path="url(#clip0_1579_2317)">
<path fill-rule="evenodd" clip-rule="evenodd" d="M36.0841 29.8481C36.0841 29.8481 38.45 29.8481 38.45 27.4609C38.45 25.0737 36.0841 17.9122 26.6207 17.9122C17.1572 17.9122 14.7914 25.0737 14.7914 27.4609C14.7914 29.8481 17.1572 29.8481 17.1572 29.8481H36.0841ZM17.2093 27.4609H36.0321C36.0432 27.4596 36.0542 27.458 36.0652 27.4561L36.0841 27.4513C36.0794 26.8211 35.689 24.9925 34.2861 23.3454C32.9801 21.8009 30.6852 20.2993 26.6207 20.2993C22.5585 20.2993 20.2636 21.8033 18.9553 23.3454C17.5523 24.9925 17.1596 26.8235 17.1572 27.4513C17.1745 27.4547 17.1919 27.4579 17.2093 27.4609ZM26.6207 13.1378C27.8756 13.1378 29.0791 12.6348 29.9665 11.7394C30.8539 10.8441 31.3524 9.62968 31.3524 8.36344C31.3524 7.0972 30.8539 5.88283 29.9665 4.98746C29.0791 4.09209 27.8756 3.58908 26.6207 3.58908C25.3657 3.58908 24.1622 4.09209 23.2748 4.98746C22.3875 5.88283 21.8889 7.0972 21.8889 8.36344C21.8889 9.62968 22.3875 10.8441 23.2748 11.7394C24.1622 12.6348 25.3657 13.1378 26.6207 13.1378ZM33.7183 8.36344C33.7183 9.30391 33.5347 10.2352 33.178 11.104C32.8213 11.9729 32.2985 12.7624 31.6394 13.4274C30.9804 14.0924 30.1979 14.6199 29.3368 14.9798C28.4757 15.3397 27.5527 15.525 26.6207 15.525C25.6886 15.525 24.7657 15.3397 23.9045 14.9798C23.0434 14.6199 22.261 14.0924 21.6019 13.4274C20.9428 12.7624 20.42 11.9729 20.0634 11.104C19.7067 10.2352 19.5231 9.30391 19.5231 8.36344C19.5231 6.46408 20.2709 4.64252 21.6019 3.29947C22.933 1.95642 24.7383 1.2019 26.6207 1.2019C28.5031 1.2019 30.3084 1.95642 31.6394 3.29947C32.9705 4.64252 33.7183 6.46408 33.7183 8.36344ZM17.0058 18.5806C16.0594 18.2799 15.0839 18.0822 14.0958 17.9909C13.5406 17.9377 12.9832 17.9114 12.4255 17.9122C2.96203 17.9122 0.596161 25.0737 0.596161 27.4609C0.596161 29.0531 1.38399 29.8481 2.96203 29.8481H12.9365C12.5858 29.1028 12.4109 28.2857 12.4255 27.4609C12.4255 25.0498 13.3174 22.5863 15.0043 20.5285C15.5792 19.8267 16.2487 19.1702 17.0058 18.5806ZM12.2362 20.2993C8.28995 20.3471 6.04948 21.8271 4.76008 23.3454C3.34766 25.0021 2.96203 26.8378 2.96203 27.4609H10.0596C10.0596 24.9663 10.8238 22.4812 12.2362 20.2993ZM4.14496 9.55703C4.14496 7.65767 4.89274 5.83611 6.2238 4.49306C7.55485 3.15001 9.36016 2.39549 11.2426 2.39549C13.125 2.39549 14.9303 3.15001 16.2613 4.49306C17.5924 5.83611 18.3402 7.65767 18.3402 9.55703C18.3402 11.4564 17.5924 13.278 16.2613 14.621C14.9303 15.9641 13.125 16.7186 11.2426 16.7186C9.36016 16.7186 7.55485 15.9641 6.2238 14.621C4.89274 13.278 4.14496 11.4564 4.14496 9.55703ZM11.2426 4.78267C9.98762 4.78267 8.78409 5.28568 7.89672 6.18105C7.00934 7.07642 6.51082 8.29079 6.51082 9.55703C6.51082 10.8233 7.00934 12.0376 7.89672 12.933C8.78409 13.8284 9.98762 14.3314 11.2426 14.3314C12.4975 14.3314 13.701 13.8284 14.5884 12.933C15.4758 12.0376 15.9743 10.8233 15.9743 9.55703C15.9743 8.29079 15.4758 7.07642 14.5884 6.18105C13.701 5.28568 12.4975 4.78267 11.2426 4.78267Z" fill="#23A6F0"/>
</g>
<defs>
<clipPath id="clip0_1579_2317">
<rect width="36.8308" height="30.3313" fill="white" transform="translate(0.851929 0.178833)"/>
</clipPath>
</defs>
</svg>
