<svg width="56" height="46" viewBox="0 0 56 46" fill="none" xmlns="http://www.w3.org/2000/svg">
<g clip-path="url(#clip0_1579_2345)">
<path fill-rule="evenodd" clip-rule="evenodd" d="M11.5808 11.4308C11.5808 9.91906 12.179 8.46921 13.2438 7.40023C14.3087 6.33126 15.7529 5.73071 17.2589 5.73071H34.2931C35.799 5.73071 37.2432 6.33126 38.3081 7.40023C39.3729 8.46921 39.9712 9.91906 39.9712 11.4308V44.2064C39.971 44.4642 39.9013 44.7171 39.7693 44.9382C39.6373 45.1593 39.448 45.3403 39.2217 45.462C38.9953 45.5837 38.7403 45.6414 38.4838 45.6291C38.2273 45.6168 37.979 45.5349 37.7652 45.392L25.776 37.3691L13.7867 45.392C13.5729 45.5349 13.3246 45.6168 13.0681 45.6291C12.8117 45.6414 12.5567 45.5837 12.3303 45.462C12.1039 45.3403 11.9147 45.1593 11.7827 44.9382C11.6507 44.7171 11.5809 44.4642 11.5808 44.2064V11.4308ZM17.2589 8.58077C16.5059 8.58077 15.7838 8.88104 15.2514 9.41553C14.7189 9.95002 14.4198 10.6749 14.4198 11.4308V41.5445L24.9896 34.4706C25.2225 34.315 25.4961 34.232 25.776 34.232C26.0558 34.232 26.3294 34.315 26.5624 34.4706L37.1321 41.5445V11.4308C37.1321 10.6749 36.833 9.95002 36.3006 9.41553C35.7682 8.88104 35.046 8.58077 34.2931 8.58077H17.2589Z" fill="#23A6F0"/>
<path fill-rule="evenodd" clip-rule="evenodd" d="M17.7192 3.1548H39.6656C40.4183 3.1548 41.1403 3.4493 41.6726 3.97351C42.2049 4.49772 42.5039 5.2087 42.5039 5.95005V38.8445L43.1369 39.2582C43.3506 39.3982 43.5989 39.4786 43.8553 39.4907C44.1117 39.5027 44.3667 39.4461 44.593 39.3268C44.8193 39.2074 45.0085 39.0299 45.1405 38.813C45.2724 38.5962 45.3422 38.3482 45.3423 38.0953V5.95005C45.3423 4.46736 44.7442 3.04539 43.6796 1.99697C42.615 0.948554 41.1711 0.359558 39.6656 0.359558L22.6353 0.359558C21.6389 0.359583 20.66 0.61791 19.797 1.10858C18.9341 1.59924 18.2175 2.30496 17.7192 3.1548Z" fill="#23A6F0"/>
</g>
<defs>
<clipPath id="clip0_1579_2345">
<rect width="55.2462" height="45.4969" fill="white" transform="translate(0.454815 0.359558)"/>
</clipPath>
</defs>
</svg>
