<svg width="56" height="46" viewBox="0 0 56 46" fill="none" xmlns="http://www.w3.org/2000/svg">
<g clip-path="url(#clip0_1579_2338)">
<path fill-rule="evenodd" clip-rule="evenodd" d="M0.375031 7.5942C0.375031 5.87896 1.06218 4.23398 2.28531 3.02112C3.50845 1.80827 5.16737 1.12689 6.89715 1.12689H50.9214C51.3539 1.12689 51.7686 1.29724 52.0744 1.60045C52.3802 1.90366 52.552 2.31491 52.552 2.74372C52.552 3.17253 52.3802 3.58377 52.0744 3.88699C51.7686 4.1902 51.3539 4.36055 50.9214 4.36055H49.2909V10.8279C50.1558 10.8279 50.9852 11.1685 51.5968 11.775C52.2084 12.3814 52.552 13.2039 52.552 14.0615V41.5476C52.552 42.834 52.0366 44.0677 51.1192 44.9774C50.2019 45.887 48.9577 46.398 47.6604 46.398H8.52767C6.36546 46.398 4.2918 45.5463 2.76288 44.0303C1.23397 42.5142 0.375031 40.458 0.375031 38.3139L0.375031 7.5942ZM3.63609 13.1949V38.3139C3.63609 39.6003 4.15145 40.8341 5.0688 41.7437C5.98615 42.6534 7.23035 43.1644 8.52767 43.1644H47.6604C48.0928 43.1644 48.5075 42.994 48.8133 42.6908C49.1191 42.3876 49.2909 41.9764 49.2909 41.5476V14.0615H6.89715C5.75206 14.063 4.62696 13.764 3.63609 13.1949ZM3.63609 7.5942C3.63609 8.45182 3.97966 9.27431 4.59123 9.88074C5.2028 10.4872 6.03226 10.8279 6.89715 10.8279H46.0298V4.36055H6.89715C6.03226 4.36055 5.2028 4.70123 4.59123 5.30766C3.97966 5.91409 3.63609 6.73658 3.63609 7.5942Z" fill="#23A6F0"/>
</g>
<defs>
<clipPath id="clip0_1579_2338">
<rect width="55.2462" height="45.4969" fill="white" transform="translate(0.375031 0.359558)"/>
</clipPath>
</defs>
</svg>
