<svg width="57" height="46" viewBox="0 0 57 46" fill="none" xmlns="http://www.w3.org/2000/svg">
<g clip-path="url(#clip0_1579_2353)">
<path fill-rule="evenodd" clip-rule="evenodd" d="M53.7666 44.8634C53.7666 44.8634 57.3154 44.8634 57.3154 41.2826C57.3154 37.7019 53.7666 26.9596 39.5714 26.9596C25.3762 26.9596 21.8274 37.7019 21.8274 41.2826C21.8274 44.8634 25.3762 44.8634 25.3762 44.8634H53.7666ZM25.4543 41.2826H53.6885C53.7052 41.2807 53.7217 41.2783 53.7382 41.2755L53.7666 41.2683C53.7595 40.323 53.174 37.5801 51.0695 35.1094C49.1106 32.7926 45.6683 30.5403 39.5714 30.5403C33.4781 30.5403 30.0358 32.7962 28.0733 35.1094C25.9689 37.5801 25.3798 40.3266 25.3762 41.2683C25.4022 41.2734 25.4282 41.2781 25.4543 41.2826ZM39.5714 19.798C41.4538 19.798 43.2591 19.0435 44.5902 17.7004C45.9212 16.3574 46.669 14.5358 46.669 12.6365C46.669 10.7371 45.9212 8.91555 44.5902 7.5725C43.2591 6.22945 41.4538 5.47493 39.5714 5.47493C37.689 5.47493 35.8837 6.22945 34.5527 7.5725C33.2216 8.91555 32.4738 10.7371 32.4738 12.6365C32.4738 14.5358 33.2216 16.3574 34.5527 17.7004C35.8837 19.0435 37.689 19.798 39.5714 19.798ZM50.2178 12.6365C50.2178 14.0472 49.9424 15.4441 49.4074 16.7474C48.8724 18.0507 48.0882 19.2349 47.0996 20.2324C46.1109 21.2299 44.9373 22.0212 43.6456 22.5611C42.3539 23.1009 40.9695 23.3788 39.5714 23.3788C38.1733 23.3788 36.7889 23.1009 35.4972 22.5611C34.2055 22.0212 33.0319 21.2299 32.0433 20.2324C31.0547 19.2349 30.2705 18.0507 29.7354 16.7474C29.2004 15.4441 28.925 14.0472 28.925 12.6365C28.925 9.78744 30.0467 7.05509 32.0433 5.04051C34.0399 3.02594 36.7478 1.89417 39.5714 1.89417C42.395 1.89417 45.103 3.02594 47.0996 5.04051C49.0961 7.05509 50.2178 9.78744 50.2178 12.6365ZM25.1491 27.9622C23.7295 27.5111 22.2662 27.2146 20.7841 27.0777C19.9513 26.9978 19.1152 26.9584 18.2786 26.9596C4.08344 26.9596 0.534637 37.7019 0.534637 41.2826C0.534637 43.671 1.71639 44.8634 4.08344 44.8634H19.0452C18.5191 43.7455 18.2567 42.5199 18.2786 41.2826C18.2786 37.666 19.6165 33.9707 22.1468 30.8841C23.0092 29.8313 24.0135 28.8466 25.1491 27.9622ZM17.9947 30.5403C12.0753 30.6119 8.71462 32.832 6.78052 35.1094C4.66189 37.5944 4.08344 40.348 4.08344 41.2826H14.7298C14.7298 37.5407 15.8761 33.8131 17.9947 30.5403ZM5.85783 14.4269C5.85783 11.5778 6.97951 8.84547 8.97609 6.8309C10.9727 4.81633 13.6806 3.68455 16.5042 3.68455C19.3278 3.68455 22.0358 4.81633 24.0324 6.8309C26.029 8.84547 27.1506 11.5778 27.1506 14.4269C27.1506 17.2759 26.029 20.0082 24.0324 22.0228C22.0358 24.0374 19.3278 25.1692 16.5042 25.1692C13.6806 25.1692 10.9727 24.0374 8.97609 22.0228C6.97951 20.0082 5.85783 17.2759 5.85783 14.4269ZM16.5042 7.26532C14.6218 7.26532 12.8165 8.01984 11.4855 9.36288C10.1544 10.7059 9.40663 12.5275 9.40663 14.4269C9.40663 16.3262 10.1544 18.1478 11.4855 19.4908C12.8165 20.8339 14.6218 21.5884 16.5042 21.5884C18.3866 21.5884 20.1919 20.8339 21.523 19.4908C22.854 18.1478 23.6018 16.3262 23.6018 14.4269C23.6018 12.5275 22.854 10.7059 21.523 9.36288C20.1919 8.01984 18.3866 7.26532 16.5042 7.26532Z" fill="#23A6F0"/>
</g>
<defs>
<clipPath id="clip0_1579_2353">
<rect width="55.2462" height="45.4969" fill="white" transform="translate(0.918274 0.359558)"/>
</clipPath>
</defs>
</svg>
