<svg width="100" height="18" viewBox="0 0 100 18" fill="none" xmlns="http://www.w3.org/2000/svg">
<g clip-path="url(#clip0_1579_2371)">
<path d="M15.5435 6.86785C15.4992 6.73755 15.4178 6.62306 15.3093 6.53851C15.2007 6.45397 15.0697 6.40306 14.9326 6.39208L10.9202 6.07326L9.18394 2.2298C9.12864 2.10601 9.0387 2.00087 8.92497 1.92707C8.81124 1.85327 8.67858 1.81396 8.543 1.81388C8.40742 1.81381 8.27472 1.85297 8.16091 1.92665C8.0471 2.00033 7.95704 2.10537 7.90161 2.2291L6.16533 6.07326L2.15296 6.39208C2.01816 6.40276 1.88928 6.45205 1.78175 6.53406C1.67422 6.61607 1.59259 6.72732 1.54664 6.8545C1.50068 6.98168 1.49233 7.11941 1.5226 7.25121C1.55287 7.38301 1.62047 7.5033 1.71731 7.59769L4.68242 10.4882L3.63376 15.0291C3.60192 15.1666 3.61212 15.3104 3.66305 15.442C3.71398 15.5736 3.80328 15.6868 3.91937 15.767C4.03545 15.8472 4.17296 15.8907 4.31404 15.8917C4.45513 15.8928 4.59328 15.8515 4.71058 15.773L8.54277 13.2182L12.375 15.773C12.4949 15.8526 12.6362 15.8936 12.7801 15.8905C12.924 15.8873 13.0634 15.8402 13.1797 15.7554C13.296 15.6706 13.3835 15.5523 13.4305 15.4163C13.4775 15.2803 13.4817 15.1331 13.4426 14.9946L12.1554 10.4903L15.3478 7.6174C15.5569 7.42878 15.6336 7.13459 15.5435 6.86785Z" fill="#F3CD03"/>
<path d="M36.2723 6.86785C36.228 6.73755 36.1466 6.62306 36.038 6.53851C35.9295 6.45396 35.7985 6.40306 35.6614 6.39208L31.649 6.07326L29.9127 2.2298C29.8574 2.10601 29.7675 2.00087 29.6537 1.92707C29.54 1.85326 29.4074 1.81395 29.2718 1.81388C29.1362 1.8138 29.0035 1.85297 28.8897 1.92665C28.7759 2.00033 28.6858 2.10537 28.6304 2.2291L26.8941 6.07326L22.8817 6.39208C22.7469 6.40276 22.6181 6.45205 22.5105 6.53406C22.403 6.61606 22.3214 6.72731 22.2754 6.8545C22.2295 6.98168 22.2211 7.11941 22.2514 7.25121C22.2816 7.38301 22.3492 7.5033 22.4461 7.59769L25.4112 10.4882L24.3625 15.0291C24.3307 15.1666 24.3409 15.3104 24.3918 15.442C24.4428 15.5736 24.5321 15.6868 24.6481 15.767C24.7642 15.8472 24.9017 15.8907 25.0428 15.8917C25.1839 15.8928 25.3221 15.8515 25.4394 15.773L29.2715 13.2182L33.1037 15.773C33.2236 15.8526 33.365 15.8936 33.5089 15.8905C33.6527 15.8873 33.7922 15.8402 33.9085 15.7554C34.0247 15.6706 34.1123 15.5523 34.1593 15.4163C34.2063 15.2803 34.2105 15.1331 34.1714 14.9946L32.8842 10.4903L36.0766 7.6174C36.2856 7.42878 36.3623 7.13459 36.2723 6.86785Z" fill="#F3CD03"/>
<path d="M56.998 6.86785C56.9538 6.73755 56.8723 6.62306 56.7638 6.53851C56.6552 6.45396 56.5243 6.40306 56.3871 6.39208L52.3747 6.07326L50.6385 2.2298C50.5832 2.10601 50.4932 2.00087 50.3795 1.92707C50.2658 1.85326 50.1331 1.81395 49.9975 1.81388C49.862 1.8138 49.7292 1.85297 49.6154 1.92665C49.5016 2.00033 49.4116 2.10537 49.3561 2.2291L47.6199 6.07326L43.6075 6.39208C43.4727 6.40276 43.3438 6.45205 43.2363 6.53406C43.1287 6.61606 43.0471 6.72731 43.0012 6.8545C42.9552 6.98168 42.9469 7.11941 42.9771 7.25121C43.0074 7.38301 43.075 7.5033 43.1718 7.59769L46.137 10.4882L45.0883 15.0291C45.0564 15.1666 45.0667 15.3104 45.1176 15.442C45.1685 15.5736 45.2578 15.6868 45.3739 15.767C45.49 15.8472 45.6275 15.8907 45.7686 15.8917C45.9097 15.8928 46.0478 15.8515 46.1651 15.773L49.9973 13.2182L53.8295 15.773C53.9494 15.8526 54.0908 15.8936 54.2346 15.8905C54.3785 15.8873 54.5179 15.8402 54.6342 15.7554C54.7505 15.6706 54.838 15.5523 54.885 15.4163C54.932 15.2803 54.9363 15.1331 54.8972 14.9946L53.6099 10.4903L56.8024 7.6174C57.0114 7.42878 57.0881 7.13459 56.998 6.86785Z" fill="#F3CD03"/>
<path d="M77.7261 6.86785C77.6818 6.73755 77.6004 6.62306 77.4918 6.53851C77.3833 6.45396 77.2523 6.40306 77.1152 6.39208L73.1028 6.07326L71.3665 2.2298C71.3112 2.10601 71.2213 2.00087 71.1075 1.92707C70.9938 1.85326 70.8612 1.81395 70.7256 1.81388C70.59 1.8138 70.4573 1.85297 70.3435 1.92665C70.2297 2.00033 70.1396 2.10537 70.0842 2.2291L68.3479 6.07326L64.3355 6.39208C64.2007 6.40276 64.0718 6.45205 63.9643 6.53406C63.8568 6.61606 63.7752 6.72731 63.7292 6.8545C63.6832 6.98168 63.6749 7.11941 63.7052 7.25121C63.7354 7.38301 63.803 7.5033 63.8999 7.59769L66.865 10.4882L65.8163 15.0291C65.7845 15.1666 65.7947 15.3104 65.8456 15.442C65.8966 15.5736 65.9859 15.6868 66.1019 15.767C66.218 15.8472 66.3555 15.8907 66.4966 15.8917C66.6377 15.8928 66.7759 15.8515 66.8931 15.773L70.7253 13.2182L74.5575 15.773C74.6774 15.8526 74.8188 15.8936 74.9627 15.8905C75.1065 15.8873 75.246 15.8402 75.3623 15.7554C75.4785 15.6706 75.5661 15.5523 75.6131 15.4163C75.6601 15.2803 75.6643 15.1331 75.6252 14.9946L74.338 10.4903L77.5304 7.6174C77.7394 7.42878 77.8161 7.13459 77.7261 6.86785Z" fill="#F3CD03"/>
<path d="M87.5945 10.4883L86.5458 15.0292C86.5133 15.1667 86.5231 15.3108 86.5738 15.4427C86.6245 15.5746 86.7138 15.6881 86.83 15.7684C86.9462 15.8488 87.0839 15.8922 87.2252 15.8931C87.3665 15.8939 87.5047 15.8521 87.6219 15.7732L91.4541 13.2184L95.2863 15.7732C95.4062 15.8528 95.5476 15.8937 95.6914 15.8906C95.8353 15.8874 95.9747 15.8403 96.091 15.7555C96.2073 15.6707 96.2948 15.5524 96.3418 15.4164C96.3888 15.2804 96.3931 15.1332 96.354 14.9948L95.0667 10.4904L98.2592 7.61751C98.3614 7.52545 98.4344 7.40543 98.4692 7.27231C98.5039 7.13918 98.4989 6.99879 98.4547 6.86849C98.4106 6.73819 98.3291 6.62369 98.2206 6.53917C98.112 6.45464 97.9811 6.40379 97.8439 6.3929L93.8315 6.07337L92.0953 2.22992C92.0399 2.10616 91.9499 2.00107 91.8361 1.92733C91.7224 1.85358 91.5897 1.81435 91.4541 1.81435C91.3185 1.81435 91.1858 1.85358 91.0721 1.92733C90.9583 2.00107 90.8683 2.10616 90.8129 2.22992L89.0767 6.07337L85.0643 6.3922C84.9295 6.40288 84.8006 6.45217 84.6931 6.53417C84.5856 6.61618 84.5039 6.72743 84.458 6.85461C84.412 6.9818 84.4037 7.11953 84.4339 7.25133C84.4642 7.38313 84.5318 7.50342 84.6286 7.59781L87.5945 10.4883ZM89.6024 7.44367C89.728 7.43378 89.8487 7.39027 89.9517 7.3177C90.0547 7.24514 90.1363 7.1462 90.188 7.03125L91.4541 4.22942L92.7202 7.03125C92.7719 7.1462 92.8535 7.24514 92.9565 7.3177C93.0595 7.39027 93.1802 7.43378 93.3058 7.44367L96.1013 7.66537L93.7992 9.73736C93.5993 9.91753 93.5198 10.1948 93.593 10.4538L94.4748 13.54L91.8454 11.7868C91.73 11.7094 91.5942 11.668 91.4552 11.668C91.3162 11.668 91.1803 11.7094 91.0649 11.7868L88.3173 13.6188L89.0563 10.4193C89.0833 10.3017 89.0797 10.179 89.0457 10.0631C89.0117 9.94728 88.9484 9.84212 88.862 9.75777L86.7239 7.67311L89.6024 7.44367Z" fill="#F3CD03"/>
</g>
<defs>
<clipPath id="clip0_1579_2371">
<rect width="99.8023" height="16.8912" fill="white" transform="translate(0.0970001 0.407684)"/>
</clipPath>
</defs>
</svg>
